<?xml version="1.0" encoding="UTF-8" standalone="no"?>
<!-- Created with Inkscape (http://www.inkscape.org/) -->

<svg
   xmlns:dc="http://purl.org/dc/elements/1.1/"
   xmlns:cc="http://creativecommons.org/ns#"
   xmlns:rdf="http://www.w3.org/1999/02/22-rdf-syntax-ns#"
   xmlns:svg="http://www.w3.org/2000/svg"
   xmlns="http://www.w3.org/2000/svg"
   xmlns:sodipodi="http://sodipodi.sourceforge.net/DTD/sodipodi-0.dtd"
   xmlns:inkscape="http://www.inkscape.org/namespaces/inkscape"
   width="185.52803mm"
   height="73.541702mm"
   viewBox="0 0 657.38278 260.58083"
   id="svg4578"
   version="1.1"
   inkscape:version="0.91 r13725"
   sodipodi:docname="logo.svg">
  <defs
     id="defs4580" />
  <sodipodi:namedview
     id="base"
     pagecolor="#ffffff"
     bordercolor="#666666"
     borderopacity="1.0"
     inkscape:pageopacity="0.0"
     inkscape:pageshadow="2"
     inkscape:zoom="0.49497475"
     inkscape:cx="17.369269"
     inkscape:cy="189.02806"
     inkscape:document-units="px"
     inkscape:current-layer="g6070"
     showgrid="false"
     inkscape:showpageshadow="false"
     fit-margin-top="5"
     fit-margin-left="5"
     fit-margin-right="5"
     fit-margin-bottom="5"
     inkscape:window-width="1600"
     inkscape:window-height="1177"
     inkscape:window-x="0"
     inkscape:window-y="0"
     inkscape:window-maximized="1" />
  <metadata
     id="metadata4583">
    <rdf:RDF>
      <cc:Work
         rdf:about="">
        <dc:format>image/svg+xml</dc:format>
        <dc:type
           rdf:resource="http://purl.org/dc/dcmitype/StillImage" />
        <dc:title></dc:title>
      </cc:Work>
    </rdf:RDF>
  </metadata>
  <g
     inkscape:label="Layer 1"
     inkscape:groupmode="layer"
     id="layer1"
     transform="translate(-17.095789,-50.432931)">
    <g
       style="overflow:visible"
       id="g4501"
       transform="translate(448.95226,74.318347)">
      <rect
         style="fill:#ffffff;fill-opacity:1;stroke:#000000;stroke-width:3.86750698;stroke-linecap:round;stroke-linejoin:miter;stroke-miterlimit:4;stroke-dasharray:none;stroke-opacity:1"
         id="rect4417"
         y="1.7524343"
         x="1.9337535"
         height="204.31381"
         width="203.94226" />
      <text
         style="font-style:normal;font-variant:normal;font-weight:normal;font-stretch:normal;font-size:144px;line-height:125%;font-family:'Bitstream Vera Sans Mono';-inkscape-font-specification:'Bitstream Vera Sans Mono';letter-spacing:0px;word-spacing:0px;fill:#000000;fill-opacity:1;stroke:none"
         xml:space="preserve"
         id="obj-start"
         y="120.19719"
         x="-4.5390625"
         sodipodi:linespacing="125%"><tspan
           id="tspan3093"
           y="120.19719"
           x="-4.5390625">{</tspan></text>
      <text
         style="font-style:normal;font-variant:normal;font-weight:normal;font-stretch:normal;font-size:144px;line-height:125%;font-family:'Bitstream Vera Sans Mono';-inkscape-font-specification:'Bitstream Vera Sans Mono';text-align:start;letter-spacing:0px;word-spacing:0px;writing-mode:lr-tb;text-anchor:start;fill:#000000;fill-opacity:1;stroke:none"
         xml:space="preserve"
         id="obj-end"
         y="120.19719"
         x="125.46094"
         sodipodi:linespacing="125%"><tspan
           style="font-style:normal;font-variant:normal;font-weight:normal;font-stretch:normal;font-size:144px;line-height:125%;font-family:'Bitstream Vera Sans Mono';-inkscape-font-specification:'Bitstream Vera Sans Mono';text-align:start;writing-mode:lr-tb;text-anchor:start"
           id="tspan3097"
           y="120.19719"
           x="125.46094">}</tspan></text>
      <g
         style="overflow:visible"
         id="g3212"
         transform="translate(51.610356,26.295132)">
        <g
           id="g3186">
          <path
             style="fill:#0c479c"
             id="path3188"
             inkscape:connector-curvature="0"
             d="m 84.45,66.836 c -0.636,-0.337 -1.284,-0.624 -1.936,-0.879 l 0.466,-0.038 c 0,0 -4.151,-1.838 -4.514,-15.18 -0.359,-13.344 3.957,-15.62 3.957,-15.62 l -0.62,0.027 C 85.064,33.473 87.869,30.83 89.72,27.342 94.543,18.27 91.092,7.001 82.018,2.177 72.94,-2.641 61.674,0.802 56.854,9.883 54.872,13.608 54.309,17.7 54.935,21.566 L 54.723,21.24 c 0,0 1.093,4.842 -10.258,11.888 -11.349,7.05 -16.469,3.54 -16.469,3.54 l 0.326,0.48 C 27.997,36.947 27.686,36.742 27.347,36.565 18.269,31.741 7,35.188 2.178,44.266 c -4.82,9.077 -1.372,20.341 7.703,25.167 6.766,3.591 14.744,2.59 20.365,-1.914 l -0.122,0.236 c 0,0 4.132,-3.399 16.04,2.994 9.4,5.044 10.796,9.988 10.975,11.846 -0.246,6.893 3.347,13.654 9.847,17.107 9.075,4.825 20.344,1.375 25.164,-7.701 4.824,-9.075 1.378,-20.345 -7.7,-25.165 z m -20.984,2.446 c -1.504,0.532 -5.801,1.121 -14.847,-3.73 -9.797,-5.26 -11.251,-9.654 -11.464,-10.973 0.139,-1.6 0.05,-3.197 -0.223,-4.755 l 0.06,0.09 c 0,0 -0.798,-4.274 10.412,-11.235 10.033,-6.228 14.594,-4.989 15.443,-4.664 0.546,0.371 1.112,0.717 1.706,1.033 1.129,0.6 2.293,1.07 3.472,1.418 1.38,1.314 3.92,5.045 4.184,14.854 0.27,9.883 -2.634,13.694 -4.217,15.042 -1.63,0.738 -3.156,1.723 -4.526,2.92 z" />
          <g
             id="g3190">
            <path
               style="fill:#ffffff"
               id="path3192"
               inkscape:connector-curvature="0"
               d="m 62.239,8.1 c -5.415,5.923 -5.529,14.636 -0.312,19.566 -2.579,-2.483 -2.523,-7.651 0.083,-12.597 0.335,-0.443 1.306,-1.49 2.725,-1.014 0.143,0.049 0.237,0.062 0.292,0.053 0.321,0.069 0.65,0.11 0.99,0.095 2.155,-0.098 3.822,-1.921 3.725,-4.077 C 69.698,9.159 69.297,8.303 68.677,7.646 73.679,4.369 79.419,3.994 81.771,6.142 l 0.09,0.006 C 76.488,1.242 67.705,2.119 62.239,8.1 Z" />
          </g>
          <g
             id="g3194">
            <path
               style="fill:#ffffff"
               id="path3196"
               inkscape:connector-curvature="0"
               d="M 7.632,62.845 C 7.586,62.798 7.539,62.743 7.491,62.697 c 0.03,0.031 0.059,0.069 0.095,0.102 l 0.046,0.046 z" />
            <path
               style="fill:#ffffff"
               id="path3198"
               inkscape:connector-curvature="0"
               d="M 7.805,43.13 C 2.389,49.054 2.276,57.765 7.492,62.696 4.914,60.212 4.969,55.044 7.575,50.098 c 0.336,-0.444 1.308,-1.49 2.727,-1.014 0.141,0.049 0.236,0.061 0.292,0.054 0.321,0.069 0.651,0.11 0.99,0.095 2.156,-0.099 3.822,-1.922 3.725,-4.076 -0.045,-0.967 -0.445,-1.824 -1.063,-2.48 4.999,-3.276 10.74,-3.654 13.092,-1.505 l 0.089,0.008 C 22.054,36.271 13.269,37.147 7.805,43.13 Z" />
          </g>
          <g
             id="g3200">
            <path
               style="fill:#ffffff"
               id="path3202"
               inkscape:connector-curvature="0"
               d="m 65.256,92.504 c -0.047,-0.048 -0.094,-0.102 -0.141,-0.148 0.029,0.031 0.059,0.069 0.094,0.101 l 0.047,0.047 z" />
            <path
               style="fill:#ffffff"
               id="path3204"
               inkscape:connector-curvature="0"
               d="m 65.428,72.786 c -5.416,5.926 -5.529,14.639 -0.313,19.569 -2.58,-2.483 -2.523,-7.653 0.082,-12.597 0.336,-0.445 1.307,-1.49 2.727,-1.014 0.143,0.047 0.235,0.061 0.292,0.053 0.32,0.069 0.651,0.11 0.99,0.096 2.154,-0.1 3.82,-1.924 3.723,-4.08 -0.044,-0.966 -0.445,-1.822 -1.063,-2.479 5,-3.275 10.739,-3.652 13.093,-1.504 l 0.088,0.007 c -5.37,-4.907 -14.156,-4.03 -19.619,1.949 z" />
          </g>
        </g>
      </g>
      <rect
         style="fill:#000000;fill-opacity:1;stroke:#000000;stroke-width:3.58656597;stroke-linecap:round;stroke-linejoin:miter;stroke-miterlimit:4;stroke-dasharray:none;stroke-opacity:1"
         id="rect4927"
         y="152.65685"
         x="1.793283"
         height="53.549866"
         width="204.19733" />
      <text
         style="font-style:normal;font-variant:normal;font-weight:bold;font-stretch:normal;font-size:40px;line-height:125%;font-family:Roboto, Arial, Helvetica, sans-serif;-inkscape-font-specification:'Roboto Bold';text-align:start;letter-spacing:0px;word-spacing:0px;writing-mode:lr-tb;text-anchor:start;fill:#ffffff;fill-opacity:1;stroke:none"
         xml:space="preserve"
         id="text4413"
         y="193.65053"
         x="20.542337"
         sodipodi:linespacing="125%"><tspan
           style="font-style:normal;font-variant:normal;font-weight:bold;font-stretch:normal;font-size:40px;line-height:125%;font-family:Roboto, Arial, Helvetica, sans-serif;-inkscape-font-specification:'Roboto Bold';text-align:start;writing-mode:lr-tb;text-anchor:start"
           id="tspan4415"
           y="193.65053"
           x="20.542337">JSON-LD</tspan></text>
    </g>
    <path
       sodipodi:nodetypes="csccsscsscssssscccssccsscsscccccccccsccc"
       inkscape:connector-curvature="0"
       id="path15585"
       d="m 341.96685,142.79012 c 0.88869,-0.089 1.56815,0.3428 2.38281,1.0801 0.90292,0.8171 1.09766,1.9165 1.09766,6.2148 0,7.6189 0.49882,10.4369 2.01758,11.3985 1.00199,0.6343 5.28408,0.8225 19.58203,0.8535 17.28541,0.038 18.41539,0.1082 20.37891,1.2617 3.98297,2.3399 4.44782,3.971 4.3164,15.1465 -0.12718,10.81448 -0.6369,12.93848 -3.5957,14.94728 -1.44742,0.9826 -3.4406,1.0995 -21.09961,1.248 -23.58806,0.1984 -21.59961,-0.6854 -21.59961,9.6055 0,5.6123 -0.18874,7.1454 -0.99219,8.0332 -0.55175,0.6096 -1.81307,1.0976 -2.83789,1.0976 -1.61295,0 -3.81749,-1.9764 -17.57031,-15.75 -10.86969,-10.8861 -15.60947,-17.30508 -16.40879,-18.27318 -2.54775,-3.0857 0.89267,-6.032 6.28379,-11.2326 2.76171,-2.6641 9.73775,-9.5009 15.50391,-15.1934 7.62161,-7.5242 10.5859,-10.2413 12.54101,-10.4375 z m -1.21875,6.4473 c -0.27523,-0.1701 -6.20127,5.4179 -13.16797,12.416 -6.96669,6.9982 -13.35616,13.3098 -14.19922,14.0273 -0.84306,0.7175 -1.5332,1.7865 -1.5332,2.375 0,1.2666 28.34047,29.88218 28.9707,29.25198 0.23648,-0.2365 0.43065,-2.8834 0.43165,-5.8809 0.002,-4.4076 0.2336,-5.8293 1.21289,-7.4355 2.16027,-3.5432 3.27124,-3.7149 24.1914,-3.7149 14.3503,0 18.99306,-0.1788 19.45899,-0.75 0.55179,-0.6762 1.01161,-10.82628 0.8125,-17.92768 -0.0683,-2.4342 -0.28229,-2.859 -1.72852,-3.4453 -0.9075,-0.3679 -3.00039,-0.6623 -4.65039,-0.6523 -3.077,0.016 -4.68499,-0.01 -7.04883,-0.098 -0.7425,-0.029 -1.89078,-0.049 -2.55078,-0.039 -0.66,0.01 -2.685,-0.013 -4.5,-0.047 -1.815,-0.033 -3.97383,0 -4.79883,0.066 -0.825,0.07 -4.50641,0.026 -8.17969,-0.098 -2.85966,-0.096 -5.04756,-0.2879 -6.74414,-0.707 l -0.0762,0 -0.0371,-0.031 c -4.50423,-1.1573 -5.36328,-4.0225 -5.36328,-11.4257 0,-3.0663 -0.22476,-5.7147 -0.5,-5.8848 z"
       style="fill:#000000;fill-opacity:1" />
    <flowRoot
       xml:space="preserve"
       id="flowRoot5868"
       style="font-style:normal;font-weight:normal;font-size:17.5px;line-height:125%;font-family:Sans;text-align:start;letter-spacing:0px;word-spacing:0px;writing-mode:lr-tb;text-anchor:start;fill:#000000;fill-opacity:1;stroke:none;stroke-width:1px;stroke-linecap:butt;stroke-linejoin:miter;stroke-opacity:1"><flowRegion
         id="flowRegion5870"><rect
           id="rect5872"
           width="0"
           height="70.714287"
           x="444.28571"
           y="360.21936" /></flowRegion><flowPara
         id="flowPara5874"></flowPara></flowRoot>    <g
       id="g5915"
       transform="matrix(4.6080172,0,0,4.6080172,250.07143,314.00088)" />
    <g
       id="g5917"
       transform="matrix(4.6080172,0,0,4.6080172,250.07143,314.00088)" />
    <g
       id="g5919"
       transform="matrix(4.6080172,0,0,4.6080172,250.07143,314.00088)" />
    <g
       id="g5921"
       transform="matrix(4.6080172,0,0,4.6080172,250.07143,314.00088)" />
    <g
       id="g5923"
       transform="matrix(4.6080172,0,0,4.6080172,250.07143,314.00088)" />
    <g
       id="g5925"
       transform="matrix(4.6080172,0,0,4.6080172,250.07143,314.00088)" />
    <g
       id="g5927"
       transform="matrix(4.6080172,0,0,4.6080172,250.07143,314.00088)" />
    <g
       id="g5929"
       transform="matrix(4.6080172,0,0,4.6080172,250.07143,314.00088)" />
    <g
       id="g5931"
       transform="matrix(4.6080172,0,0,4.6080172,250.07143,314.00088)" />
    <g
       id="g5933"
       transform="matrix(4.6080172,0,0,4.6080172,250.07143,314.00088)" />
    <g
       id="g5935"
       transform="matrix(4.6080172,0,0,4.6080172,250.07143,314.00088)" />
    <g
       id="g5937"
       transform="matrix(4.6080172,0,0,4.6080172,250.07143,314.00088)" />
    <g
       id="g5939"
       transform="matrix(4.6080172,0,0,4.6080172,250.07143,314.00088)" />
    <g
       id="g5941"
       transform="matrix(4.6080172,0,0,4.6080172,250.07143,314.00088)" />
    <g
       id="g5943"
       transform="matrix(4.6080172,0,0,4.6080172,250.07143,314.00088)" />
    <g
       id="g6077"
       transform="translate(0,-8.3528498)">
      <g
         transform="matrix(0.41858615,-0.9081771,0.9081771,0.41858615,-94.24327,270.67175)"
         id="g6070">
        <path
           id="path5903"
           d="m 147.85975,135.52708 -14.16877,-13.39069 c 1.6503,-2.99829 2.6712,-6.39306 2.6712,-10.05542 0,-11.60661 -9.40125,-21.007852 -21.01279,-21.007852 -11.61156,0 -21.02767,9.396292 -21.02767,21.007852 0,11.61154 9.41611,21.01775 21.02767,21.01775 4.09353,0 7.87979,-1.21914 11.111,-3.24112 l 14.14895,13.37582 c 2.14092,-2.82978 4.55443,-5.4217 7.25041,-7.70634 z"
           inkscape:connector-curvature="0" />
        <path
           id="path5905"
           d="m 205.1566,145.25917 18.82727,-31.68274 c 1.85349,0.53027 3.77635,0.91188 5.79338,0.91188 11.63138,0 21.03261,-9.4062 21.03261,-21.017749 0,-11.6066 -9.40123,-21.007845 -21.03261,-21.007845 -11.61155,0 -21.00784,9.396287 -21.00784,21.007845 0,5.763646 2.32429,10.972249 6.08083,14.773379 l -18.7678,31.59353 c 3.22626,1.46197 6.26915,3.28572 9.07416,5.4217 z"
           inkscape:connector-curvature="0" />
        <path
           id="path5907"
           d="m 276.67653,165.6002 c -9.03947,0 -16.69626,5.74382 -19.66481,13.75247 l -26.15697,-2.58199 c 0,0.19823 0.0297,0.38655 0.0297,0.57983 0,3.40962 -0.37665,6.73995 -1.0556,9.9563 l 26.14705,2.582 c 1.58092,10.03063 10.21897,17.72211 20.70058,17.72211 11.6066,0 21.00289,-9.39629 21.00289,-21.00289 0,-11.60164 -9.39629,-21.00783 -21.00289,-21.00783 z"
           inkscape:connector-curvature="0" />
        <path
           id="path5909"
           d="m 204.4946,248.22409 -5.8479,-25.55236 c -3.30059,1.14976 -6.73499,1.97243 -10.31807,2.38377 l 5.85782,25.5573 c -6.71519,3.51371 -11.3489,10.45685 -11.3489,18.56462 0,11.60659 9.39629,20.99792 21.02766,20.99792 11.6066,0 21.00288,-9.39629 21.00288,-20.99792 0.0148,-11.39351 -9.06424,-20.61634 -20.37349,-20.95333 z"
           inkscape:connector-curvature="0" />
        <path
           id="path5911"
           d="m 135.90567,187.49513 -32.55992,10.90782 c -3.756537,-5.73887 -10.223916,-9.54496 -17.583354,-9.54496 -11.611547,0 -21.007834,9.40124 -21.007834,21.00784 0,11.62146 9.396287,21.0227 21.007834,21.0227 11.601641,0 21.022704,-9.40124 21.022704,-21.0227 0,-0.48568 -0.1041,-0.9317 -0.14371,-1.40746 l 32.66399,-10.93756 c -1.47189,-3.17669 -2.64147,-6.5219 -3.39971,-10.02568 z"
           inkscape:connector-curvature="0" />
      </g>
      <g
         transform="matrix(0.1601558,0,0,0.1601558,90.11359,129.62466)"
         id="g5989">
        <rect
           style="fill:#f7df1e"
           y="0"
           x="0"
           width="630"
           height="630"
           id="rect5979" />
        <path
           inkscape:connector-curvature="0"
           d="m 423.2,492.19 c 12.69,20.72 29.2,35.95 58.4,35.95 24.53,0 40.2,-12.26 40.2,-29.2 0,-20.3 -16.1,-27.49 -43.1,-39.3 l -14.8,-6.35 c -42.72,-18.2 -71.1,-41 -71.1,-89.2 0,-44.4 33.83,-78.2 86.7,-78.2 37.64,0 64.7,13.1 84.2,47.4 l -46.1,29.6 c -10.15,-18.2 -21.1,-25.37 -38.1,-25.37 -17.34,0 -28.33,11 -28.33,25.37 0,17.76 11,24.95 36.4,35.95 l 14.8,6.34 c 50.3,21.57 78.7,43.56 78.7,93 0,53.3 -41.87,82.5 -98.1,82.5 -54.98,0 -90.5,-26.2 -107.88,-60.54 z m -209.13,5.13 c 9.3,16.5 17.76,30.45 38.1,30.45 19.45,0 31.72,-7.61 31.72,-37.2 l 0,-201.3 59.2,0 0,202.1 c 0,61.3 -35.94,89.2 -88.4,89.2 -47.4,0 -74.85,-24.53 -88.81,-54.075 z"
           id="path5981" />
      </g>
    </g>
    <text
       xml:space="preserve"
       style="font-style:normal;font-weight:normal;font-size:17.5px;line-height:125%;font-family:Sans;text-align:start;letter-spacing:0px;word-spacing:0px;writing-mode:lr-tb;text-anchor:start;fill:#000000;fill-opacity:1;stroke:none;stroke-width:1px;stroke-linecap:butt;stroke-linejoin:miter;stroke-opacity:1"
       x="156.92827"
       y="278.79425"
       id="text6058"
       sodipodi:linespacing="125%"><tspan
         sodipodi:role="line"
         id="tspan6060"
         x="156.92827"
         y="278.79425"
         style="font-style:normal;font-variant:normal;font-weight:normal;font-stretch:normal;font-size:22.5px;font-family:'Ubuntu Condensed';-inkscape-font-specification:'Ubuntu Condensed, '">.Gordon.knows.Alyx</tspan></text>
  </g>
</svg>
